<?xml version="1.0" standalone="no"?>
<!DOCTYPE svg PUBLIC "-//W3C//DTD SVG 20010904//EN"
 "http://www.w3.org/TR/2001/REC-SVG-20010904/DTD/svg10.dtd">
<svg version="1.0" xmlns="http://www.w3.org/2000/svg"
 width="2092.000000pt" height="2092.000000pt" viewBox="0 0 2092.000000 2092.000000"
 preserveAspectRatio="xMidYMid meet">
<metadata>
Created by potrace 1.14, written by Peter Selinger 2001-2017
</metadata>
<g transform="translate(0.000000,2092.000000) scale(0.100000,-0.100000)"
fill="#000000" stroke="none">
<path d="M5638 20156 c-1 -2 -43 -6 -93 -10 -172 -12 -268 -21 -325 -31 -14
-2 -45 -7 -70 -10 -25 -3 -52 -8 -60 -10 -8 -2 -35 -7 -60 -10 -25 -3 -52 -8
-60 -10 -8 -2 -28 -7 -45 -10 -47 -8 -75 -14 -93 -19 -9 -3 -33 -8 -52 -12
-46 -8 -51 -9 -75 -17 -11 -3 -31 -8 -45 -11 -136 -23 -597 -180 -788 -267
-35 -16 -65 -29 -68 -29 -21 0 -453 -229 -549 -290 -13 -8 -47 -30 -77 -48
-77 -47 -92 -56 -98 -62 -3 -3 -25 -18 -50 -34 -55 -36 -309 -224 -331 -245
-9 -9 -30 -27 -48 -41 -18 -13 -43 -33 -55 -45 -13 -11 -56 -49 -97 -85 -78
-69 -359 -346 -359 -354 0 -3 -15 -20 -33 -38 -50 -50 -174 -200 -270 -328
-48 -63 -91 -120 -96 -126 -5 -6 -21 -30 -36 -54 -15 -24 -36 -53 -46 -64 -11
-11 -19 -23 -19 -27 0 -4 -18 -34 -39 -67 -22 -32 -48 -74 -59 -93 -11 -19
-43 -74 -71 -122 -74 -128 -261 -502 -261 -523 0 -3 -8 -24 -19 -47 -71 -160
-211 -581 -246 -746 -46 -213 -81 -395 -91 -470 -3 -25 -7 -56 -9 -67 -3 -20
-10 -79 -21 -174 -26 -231 -26 -846 0 -1000 3 -14 7 -50 10 -80 7 -70 14 -123
32 -235 9 -49 18 -106 20 -125 3 -19 8 -42 11 -50 3 -8 7 -28 10 -45 7 -48 62
-273 85 -350 12 -38 23 -77 24 -86 11 -58 146 -424 215 -582 40 -92 193 -399
223 -446 13 -20 34 -56 48 -81 71 -126 212 -340 307 -465 47 -63 198 -252 216
-271 5 -6 39 -44 75 -85 111 -126 393 -402 475 -467 12 -10 33 -37 47 -62 23
-41 382 -587 411 -625 4 -5 43 -64 86 -130 77 -117 109 -154 167 -191 16 -10
31 -21 34 -24 11 -13 218 -150 226 -150 5 0 16 -9 24 -20 8 -11 18 -20 23 -20
4 0 35 -18 67 -40 32 -22 63 -40 69 -40 5 0 11 -4 13 -8 2 -5 68 -50 148 -102
80 -51 147 -97 148 -102 2 -4 8 -8 14 -8 6 0 42 -21 82 -47 39 -25 103 -66
141 -91 39 -25 89 -58 112 -73 23 -16 46 -29 52 -29 6 0 11 -3 11 -8 0 -4 9
-12 20 -17 17 -9 127 -79 293 -187 23 -15 53 -33 67 -40 14 -7 28 -16 31 -21
7 -10 47 -34 72 -43 9 -3 17 -10 17 -15 0 -5 4 -9 9 -9 4 0 49 -27 99 -60 51
-33 96 -60 101 -60 5 0 11 -3 13 -8 2 -4 59 -43 128 -86 69 -44 127 -82 130
-85 3 -3 15 -12 28 -18 12 -7 32 -19 45 -25 12 -7 24 -16 27 -19 10 -11 261
-169 270 -169 4 0 10 -3 12 -7 4 -11 116 -83 128 -83 5 0 10 -4 10 -9 0 -5 15
-16 34 -25 18 -8 39 -22 46 -31 7 -8 16 -15 21 -15 11 0 151 -91 160 -103 3
-5 9 -8 13 -8 5 1 122 -72 224 -140 24 -16 45 -29 48 -29 3 0 10 -5 17 -10 7
-6 37 -26 67 -45 30 -19 62 -39 70 -45 8 -6 44 -29 80 -51 36 -23 111 -71 168
-108 56 -36 142 -91 190 -122 48 -31 130 -84 182 -118 52 -33 99 -62 103 -64
7 -2 -29 -107 -63 -182 -4 -11 -75 -189 -155 -395 -81 -206 -171 -436 -200
-510 -30 -74 -87 -220 -128 -325 -42 -104 -144 -363 -227 -575 -84 -212 -217
-551 -296 -755 -80 -203 -149 -379 -154 -390 -5 -11 -28 -67 -50 -125 -22 -58
-45 -114 -49 -125 -12 -27 -310 -782 -323 -820 -6 -16 -17 -43 -24 -60 -34
-76 -221 -575 -265 -706 -30 -88 -49 -163 -49 -190 0 -61 33 -154 67 -187 7
-7 13 -19 13 -26 0 -7 9 -21 20 -31 11 -10 20 -22 20 -27 0 -5 5 -14 10 -21
24 -28 61 -83 66 -99 4 -10 10 -18 14 -18 4 0 12 -11 18 -25 7 -14 17 -31 22
-38 9 -10 47 -66 105 -155 6 -8 43 -64 83 -124 39 -60 72 -113 72 -118 0 -4 4
-10 9 -12 4 -1 29 -34 53 -73 25 -38 59 -83 75 -100 48 -49 92 -85 103 -85 5
0 10 -4 10 -8 0 -24 204 -61 216 -40 4 6 10 5 15 -3 7 -12 9 -12 9 0 0 8 7 11
20 8 11 -3 20 -1 20 3 0 5 16 12 35 16 19 3 35 11 35 17 0 6 3 8 6 4 4 -3 13
1 21 9 8 8 18 12 23 9 4 -3 11 2 14 11 4 9 9 14 12 11 3 -3 17 6 30 20 13 14
24 22 24 18 0 -4 11 4 25 19 13 14 28 26 33 26 6 0 12 7 16 15 3 8 13 15 21
15 9 0 14 4 10 9 -3 5 4 12 15 16 11 3 20 10 20 15 0 5 9 12 20 15 11 4 18 11
15 16 -6 8 8 13 28 10 4 0 7 6 7 14 0 8 3 15 8 15 4 0 23 14 42 30 19 16 38
30 43 30 4 0 7 7 7 16 0 8 4 13 9 9 6 -3 14 3 20 12 6 10 11 14 11 10 0 -4 14
7 32 25 18 18 35 33 38 33 3 0 22 16 42 35 67 63 98 89 98 83 0 -3 10 5 23 18
13 13 45 42 71 64 27 22 56 48 65 57 8 10 21 18 29 18 7 0 10 5 7 10 -3 6 -2
10 3 10 8 0 45 31 103 85 9 8 18 15 22 15 3 0 25 19 48 43 24 23 47 41 51 40
4 -2 8 2 8 8 0 5 5 7 10 4 6 -4 9 -2 8 3 -2 5 11 22 29 38 50 46 61 53 67 47
3 -4 6 1 6 11 0 9 5 14 10 11 6 -3 10 1 10 9 0 9 3 15 8 15 20 -3 32 2 29 14
-1 6 3 11 10 10 6 -2 15 6 18 17 6 18 17 25 38 21 5 -1 6 3 2 8 -3 6 5 15 17
22 13 7 30 20 39 31 9 10 22 18 28 18 7 0 9 4 6 10 -3 5 -3 10 2 10 8 0 34 22
113 93 19 17 37 31 40 32 3 0 22 16 42 35 20 19 56 51 79 70 23 19 55 48 71
64 15 15 28 24 28 20 1 -5 7 2 15 16 8 14 14 22 15 18 0 -8 41 25 82 66 15 15
28 25 28 22 0 -3 8 2 18 12 11 9 17 20 15 25 -2 4 2 7 9 7 8 0 31 18 53 40 22
21 44 39 48 40 4 0 25 17 46 38 79 76 130 119 135 114 3 -3 8 3 12 12 3 9 13
16 21 16 8 0 12 3 10 8 -3 4 1 13 9 20 8 7 14 10 14 6 0 -4 9 5 21 20 11 14
25 26 30 26 6 0 26 16 45 36 19 20 34 33 34 28 0 -5 5 -1 11 9 6 9 15 15 20
11 5 -3 8 0 7 8 -2 7 3 12 10 10 8 -1 11 2 8 7 -8 12 34 42 47 34 6 -3 7 -2 4
4 -3 5 8 20 25 34 16 13 45 39 64 56 19 18 34 31 34 28 0 -4 44 34 100 87 16
16 32 28 34 28 3 0 23 17 44 38 66 63 113 102 124 102 5 0 6 4 3 10 -3 5 3 10
15 10 12 0 19 4 16 8 -3 5 13 22 34 38 22 16 40 32 40 37 0 4 7 7 15 7 8 0 15
7 15 15 0 9 6 12 17 8 9 -4 14 -2 10 4 -6 10 26 43 44 43 5 0 7 5 4 10 -3 6 0
10 7 10 7 0 25 15 41 33 16 17 26 26 22 18 -6 -9 -4 -12 3 -7 7 4 12 14 12 22
0 8 3 13 8 12 6 -2 23 11 105 85 18 15 35 27 40 27 4 0 5 5 2 10 -3 6 1 10 9
10 8 0 22 10 31 23 8 12 19 22 23 22 4 0 6 3 5 7 -2 5 3 8 11 8 8 0 26 14 39
30 14 17 29 30 32 30 7 0 32 22 101 87 19 17 34 29 34 27 0 -3 14 9 30 26 16
17 30 28 30 26 0 -3 16 10 35 30 19 19 35 32 35 30 0 -3 18 13 40 35 22 22 40
37 40 32 0 -4 5 0 11 10 6 9 15 14 21 11 6 -4 8 -3 5 3 -6 10 28 45 36 36 3
-2 8 5 12 16 3 12 11 19 16 16 5 -4 9 -1 9 5 0 6 5 8 10 5 6 -3 10 1 10 9 0 9
6 16 14 16 8 0 17 7 20 16 3 9 11 12 18 8 7 -4 10 -4 6 1 -7 8 40 55 55 55 4
0 7 7 7 16 0 8 5 12 10 9 6 -3 10 -1 10 6 0 7 3 10 6 7 3 -4 25 14 49 38 25
24 47 44 49 44 3 0 21 16 42 35 l37 36 31 -28 c17 -16 34 -32 38 -38 4 -5 8
-7 8 -4 0 4 20 -12 44 -35 25 -22 57 -52 73 -65 65 -55 148 -127 163 -141 9
-8 41 -36 71 -62 30 -25 65 -56 79 -68 51 -43 116 -99 136 -117 36 -31 147
-128 158 -138 12 -11 124 -106 165 -140 13 -11 41 -37 63 -58 22 -20 42 -37
45 -37 3 0 20 -15 38 -32 18 -18 50 -47 71 -65 22 -17 53 -44 71 -60 17 -15
53 -46 79 -68 46 -39 74 -63 179 -155 28 -25 67 -58 87 -75 56 -48 159 -138
187 -163 13 -13 40 -35 59 -50 19 -15 49 -40 67 -57 45 -42 90 -81 165 -145
36 -30 72 -63 81 -72 9 -10 19 -18 23 -18 4 0 27 -20 53 -45 25 -25 48 -45 52
-45 4 0 14 -8 22 -17 9 -10 39 -38 68 -63 30 -25 63 -53 75 -63 11 -10 48 -42
80 -70 32 -29 68 -60 80 -70 12 -10 33 -28 47 -40 14 -12 52 -44 84 -72 32
-27 63 -55 69 -60 6 -6 42 -37 81 -70 38 -33 76 -67 86 -75 9 -8 35 -31 59
-50 23 -19 52 -44 64 -55 12 -11 62 -54 111 -95 50 -41 102 -88 118 -104 15
-15 27 -25 27 -22 0 4 11 -3 24 -16 12 -13 34 -32 47 -43 45 -37 154 -130 174
-148 11 -10 37 -33 59 -50 21 -18 50 -42 63 -54 13 -11 42 -35 63 -53 21 -18
50 -42 63 -53 14 -12 35 -31 48 -42 170 -141 205 -170 211 -179 4 -6 8 -8 8
-5 0 4 19 -10 43 -32 86 -79 184 -150 259 -189 43 -22 80 -40 83 -39 3 0 20
-3 38 -7 42 -9 130 -9 145 0 7 4 16 4 22 1 6 -3 10 -1 10 4 0 6 8 11 19 11 10
0 24 7 31 15 7 8 18 15 26 15 7 0 18 8 23 18 6 9 11 14 11 10 0 -11 66 57 73
76 4 9 10 16 16 16 8 0 24 37 22 53 -1 4 3 7 8 7 5 0 12 7 15 16 4 10 2 13 -7
8 -8 -6 -8 -3 1 8 8 9 14 29 16 45 1 15 6 35 11 42 5 10 4 16 -3 19 -7 2 -8
11 -2 27 6 16 6 27 -1 31 -8 4 -7 9 2 15 9 6 10 9 2 9 -6 0 -10 8 -9 17 2 14
-8 82 -18 118 -3 10 -21 56 -33 85 -3 8 -7 17 -8 20 -4 11 -26 66 -34 85 -41
93 -56 135 -53 148 1 4 -3 7 -10 7 -6 0 -8 3 -5 6 4 4 0 19 -8 33 -8 14 -35
80 -61 146 -26 66 -55 139 -65 162 -11 23 -19 44 -19 47 0 2 -5 17 -12 33 -6
15 -12 30 -13 33 -1 3 -7 19 -14 35 -7 17 -50 125 -96 240 -46 116 -89 224
-96 240 -7 17 -13 32 -14 35 0 3 -20 53 -43 112 -23 58 -42 111 -42 117 0 6
-4 11 -10 11 -5 0 -10 8 -10 18 0 10 -3 22 -7 26 -5 4 -8 11 -8 14 0 11 -85
224 -100 252 -7 14 -14 30 -15 35 -1 6 -7 21 -12 35 -22 59 -81 207 -93 235
-7 17 -21 50 -30 75 -9 25 -21 53 -26 62 -5 10 -9 25 -9 33 0 8 -4 15 -10 15
-5 0 -9 3 -8 7 1 8 -3 22 -28 83 -20 52 -37 94 -39 100 -1 3 -7 18 -13 33 -7
16 -12 31 -12 33 0 3 -8 24 -19 47 -33 75 -94 232 -94 245 0 6 -4 12 -9 12 -4
0 -8 6 -8 13 0 7 -9 32 -20 55 -11 22 -20 46 -20 52 0 5 -4 18 -9 28 -5 9 -13
28 -19 42 -5 14 -17 41 -25 60 -8 19 -27 67 -41 105 -15 39 -31 79 -36 90 -20
43 -33 80 -31 89 1 5 -2 12 -6 15 -9 6 -47 101 -46 111 1 3 -5 16 -12 30 -18
36 -32 69 -49 115 -17 48 -82 212 -95 240 -24 50 -135 341 -133 348 1 4 -3 7
-8 7 -6 0 -10 6 -10 13 0 13 -38 113 -67 174 -8 17 -16 37 -17 45 -2 7 -8 24
-14 38 -5 14 -34 84 -62 155 -29 72 -57 141 -63 155 -5 14 -11 30 -13 35 -1 6
-17 44 -34 85 -17 41 -33 80 -34 85 -1 6 -10 27 -19 49 -9 21 -17 40 -17 42 0
1 -5 15 -12 31 -6 15 -12 33 -12 38 -1 11 68 65 83 65 5 0 14 7 21 15 7 8 16
13 20 10 4 -3 10 1 13 8 3 6 22 21 43 32 22 11 45 26 52 33 8 7 19 9 25 5 7
-3 9 -3 5 2 -8 8 51 51 65 47 4 -1 7 3 7 9 0 5 4 8 9 4 6 -3 15 4 21 15 6 11
15 18 21 15 5 -4 9 -1 9 5 0 6 5 8 10 5 6 -3 13 1 16 9 3 9 13 16 20 16 8 0
17 7 20 15 4 8 14 15 24 15 10 0 21 7 24 16 4 9 9 14 12 11 4 -3 35 14 69 38
35 24 66 41 69 38 3 -3 8 2 12 11 3 9 11 16 17 16 6 0 22 10 35 22 14 13 22
16 18 8 -4 -8 0 -6 8 4 9 11 16 16 16 10 0 -5 5 -1 11 9 6 9 14 15 19 12 4 -3
11 2 14 11 3 8 10 13 15 10 5 -3 12 1 15 10 3 8 10 12 16 9 5 -3 10 -1 10 5 0
6 4 9 9 6 5 -3 12 1 15 10 3 8 10 13 15 10 5 -4 11 -2 13 2 5 12 98 74 98 66
0 -4 7 1 16 12 8 10 12 12 8 4 -4 -8 5 -3 20 12 16 15 37 30 47 33 10 4 19 11
19 16 0 6 5 7 10 4 6 -3 10 -1 10 6 0 7 3 10 6 6 4 -3 12 -1 20 6 33 29 44 37
54 37 5 0 10 5 10 11 0 5 4 8 9 4 6 -3 14 2 19 10 4 9 18 17 29 18 12 0 20 4
18 7 -1 3 3 11 11 18 8 7 14 10 14 6 0 -3 6 -1 13 5 8 6 18 7 22 3 5 -4 5 -1
1 6 -5 8 2 16 19 22 15 6 33 17 42 25 8 8 19 12 25 9 7 -4 8 -2 4 4 -6 11 -1
14 20 11 3 0 12 8 20 18 7 10 14 15 14 11 0 -5 11 2 24 13 13 12 26 19 28 18
2 -2 14 6 28 18 13 13 29 23 36 23 6 0 15 7 18 16 3 8 10 13 14 10 5 -3 21 6
36 19 16 14 32 22 36 20 4 -3 10 2 14 10 3 8 12 15 21 15 8 0 15 5 15 10 0 6
7 10 15 10 8 0 15 4 15 9 0 5 8 11 18 15 26 9 86 47 94 60 4 6 8 7 8 2 0 -6 7
-1 15 10 8 10 15 15 15 11 0 -4 10 1 22 13 12 11 28 20 35 20 7 0 13 5 13 11
0 5 5 7 10 4 6 -3 10 -2 10 4 0 6 16 18 35 27 19 9 35 21 35 26 0 5 5 6 10 3
6 -3 10 -1 10 4 0 6 5 11 11 11 7 0 18 8 26 18 10 11 12 12 8 2 -4 -10 -2 -9
8 3 8 9 18 17 24 17 5 0 19 9 30 20 12 11 27 21 34 22 14 3 21 8 58 38 13 11
27 17 31 15 4 -3 10 2 14 10 3 8 12 15 21 15 8 0 15 4 15 9 0 5 14 14 30 21
17 7 30 16 30 21 0 5 7 9 15 9 8 0 15 5 15 11 0 5 4 8 9 4 6 -3 13 0 18 7 4 7
25 22 46 33 20 11 37 23 37 27 0 5 6 8 13 8 7 0 23 9 34 19 12 11 24 17 27 14
3 -4 6 -1 6 6 0 7 4 10 9 6 5 -3 16 4 25 16 8 12 19 18 24 15 6 -3 12 1 16 9
3 8 12 15 21 15 8 0 15 4 15 9 0 5 16 16 35 25 19 9 40 22 47 29 7 7 30 21 51
32 20 11 37 23 37 28 0 4 5 5 10 2 6 -3 10 -2 10 3 0 4 19 19 43 32 23 13 48
30 55 37 7 7 19 13 27 13 7 0 16 7 19 16 4 9 9 14 13 10 4 -3 17 4 30 16 13
12 23 18 23 13 0 -5 7 0 16 11 8 10 12 12 8 4 -4 -8 5 -3 20 12 16 15 32 26
36 23 4 -3 10 2 14 10 3 8 12 15 21 15 8 0 15 5 15 10 0 6 7 10 15 10 9 0 18
7 21 15 4 8 10 13 14 10 5 -3 14 1 22 8 18 17 68 49 68 43 0 -3 12 6 27 20 14
13 28 22 31 19 3 -2 10 2 16 10 6 7 18 15 26 17 8 2 22 10 30 19 16 17 50 33
63 30 5 -1 6 3 3 8 -4 5 4 13 16 17 12 3 31 15 42 25 11 11 26 19 33 19 7 0
13 5 13 10 0 6 6 10 14 10 8 0 16 4 18 9 2 5 10 11 18 13 8 2 23 12 33 22 9
10 17 16 17 13 0 -4 9 2 20 13 11 11 25 20 31 20 6 0 25 11 43 25 18 14 38 25
44 25 7 0 12 4 12 9 0 5 16 16 35 25 19 9 35 22 35 28 0 5 7 7 16 4 8 -3 12
-2 9 4 -3 6 3 10 15 10 12 0 18 5 15 10 -3 5 -1 10 5 10 12 0 71 39 82 55 5 7
8 7 8 0 0 -6 3 -6 8 0 10 15 66 50 75 47 4 -1 7 3 7 9 0 5 5 7 10 4 6 -3 10
-2 10 3 0 12 50 45 67 45 7 0 10 4 8 8 -5 7 24 23 38 21 4 -1 7 2 7 7 0 11 50
44 67 44 7 0 11 3 8 5 -6 6 37 38 47 34 5 -1 8 3 8 10 0 6 3 9 6 6 3 -3 17 5
31 18 14 13 32 24 39 24 8 0 14 4 14 10 0 5 12 16 28 24 15 8 37 22 49 33 54
46 62 51 67 46 3 -4 6 0 6 7 0 7 9 21 21 31 12 10 18 23 13 30 -4 8 -3 9 4 5
8 -5 12 0 12 13 0 12 5 21 11 21 6 0 9 7 5 15 -3 8 -2 15 3 15 4 0 8 6 9 13 4
49 9 74 15 85 5 7 3 12 -4 12 -8 0 -9 4 0 13 8 10 7 17 -1 25 -9 9 -9 12 1 12
7 0 9 5 5 12 -4 6 -9 28 -11 47 -10 97 -25 130 -162 336 -69 105 -128 195
-130 200 -2 6 -7 12 -11 15 -3 3 -17 23 -30 45 -13 22 -27 42 -30 45 -3 3 -21
30 -40 60 -19 30 -38 57 -42 58 -5 2 -8 8 -8 12 0 8 -120 190 -171 259 -47 65
-162 129 -264 148 -53 10 -263 10 -395 -1 -58 -5 -121 -10 -140 -11 -41 -3
-177 -15 -235 -20 -22 -2 -80 -6 -130 -10 -49 -4 -106 -8 -125 -10 -19 -2 -75
-6 -125 -10 -49 -3 -106 -7 -125 -10 -19 -2 -78 -7 -130 -11 -52 -3 -101 -7
-110 -9 -8 -1 -62 -6 -120 -10 -58 -4 -121 -8 -140 -10 -19 -2 -71 -6 -115
-10 -44 -3 -100 -8 -125 -10 -123 -11 -171 -15 -236 -20 -40 -3 -91 -7 -115
-10 -24 -2 -75 -6 -114 -10 -38 -3 -92 -8 -120 -10 -27 -3 -81 -7 -120 -10
-38 -3 -92 -8 -120 -10 -27 -3 -79 -7 -115 -10 -36 -2 -90 -7 -120 -9 -30 -3
-111 -10 -180 -16 -69 -6 -150 -12 -180 -15 -30 -3 -83 -7 -117 -10 -87 -7
-180 -15 -233 -20 -25 -3 -76 -7 -115 -10 -65 -4 -104 -8 -240 -20 -27 -3 -81
-7 -120 -10 -108 -8 -197 -16 -235 -20 -19 -2 -75 -6 -125 -10 -49 -3 -108 -8
-130 -10 -66 -7 -146 -14 -225 -20 -41 -3 -93 -7 -115 -10 -81 -8 -221 -18
-265 -19 -43 -1 -45 0 -51 34 -4 19 -15 64 -23 100 -17 68 -22 89 -31 130 -7
35 -35 151 -41 175 -3 11 -7 31 -10 45 -3 14 -10 43 -15 65 -6 22 -12 56 -16
75 -3 19 -8 37 -12 40 -3 3 -7 14 -8 25 -3 27 -11 70 -13 70 -2 0 -10 34 -14
60 -2 11 -4 20 -6 20 -1 0 -4 13 -6 29 -3 16 -12 55 -20 85 -8 31 -17 67 -19
81 -2 14 -7 34 -9 45 -3 11 -13 49 -21 85 -9 36 -18 74 -20 85 -3 11 -9 40
-15 65 -6 25 -13 56 -16 70 -7 30 -9 37 -17 70 -9 34 -18 78 -24 118 -3 17 -9
32 -13 32 -4 0 -7 8 -7 18 1 21 -14 94 -21 106 -3 6 -7 19 -8 30 -1 12 -4 30
-7 41 -6 20 -33 136 -43 184 -3 14 -7 28 -9 31 -2 4 -7 22 -10 41 -6 31 -21
101 -30 139 -25 98 -39 157 -50 215 -3 17 -8 37 -11 45 -7 19 -17 70 -18 93 0
9 -4 17 -8 17 -4 0 -8 9 -8 19 0 11 -11 66 -26 123 -14 57 -27 114 -30 127 -3
12 -12 53 -20 90 -9 36 -17 73 -19 81 -2 8 -4 16 -5 18 -2 1 -3 10 -4 20 -1 9
-6 28 -10 40 -4 13 -9 34 -11 45 -2 12 -6 33 -10 47 -3 14 -9 39 -12 55 -3 17
-9 37 -14 46 -4 9 -6 19 -3 22 3 3 2 12 -2 19 -5 7 -9 19 -11 27 -1 7 -7 34
-13 60 -6 25 -12 55 -15 66 -2 11 -21 88 -40 170 -20 83 -38 157 -40 165 -2 8
-11 41 -19 73 -9 32 -16 67 -16 78 0 10 -4 27 -9 37 -10 18 -74 277 -74 299 0
7 -3 13 -7 13 -4 0 -7 6 -8 13 -1 18 -12 69 -19 92 -8 22 -7 19 -17 60 -4 17
-10 37 -13 45 -4 8 -7 22 -7 30 -1 8 -6 29 -12 45 -9 24 -32 97 -39 125 -1 3
-9 22 -18 44 -9 21 -17 40 -17 42 0 2 -85 132 -190 290 -104 158 -190 290
-190 295 0 5 -4 9 -10 9 -5 0 -10 7 -10 15 0 8 -4 15 -10 15 -5 0 -10 7 -10
15 0 8 -4 15 -10 15 -5 0 -10 6 -10 14 0 8 -4 16 -8 18 -8 3 -92 126 -92 135
0 12 -72 87 -106 111 -17 12 -37 36 -44 54 -16 39 -157 325 -190 383 -12 22
-30 54 -40 70 -10 17 -26 46 -37 65 -34 63 -176 284 -208 325 -9 11 -24 32
-33 48 -9 15 -20 27 -24 27 -4 0 -8 5 -8 10 0 12 -148 204 -161 208 -5 2 -9 9
-9 16 0 6 -8 19 -17 27 -10 9 -38 40 -63 69 -81 97 -133 153 -266 285 -202
201 -323 307 -519 455 -55 41 -102 77 -105 80 -3 3 -12 10 -21 15 -56 35 -165
111 -167 118 -2 4 -8 7 -13 7 -6 0 -36 17 -67 38 -150 97 -393 229 -607 327
-423 194 -983 355 -1425 410 -25 3 -61 8 -80 10 -19 3 -69 8 -110 11 -41 3
-83 8 -95 11 -21 5 -651 13 -657 9z m-1238 -2889 c42 -9 160 -60 205 -89 32
-21 134 -130 141 -150 3 -10 9 -18 14 -18 8 0 11 -6 49 -113 70 -193 13 -426
-142 -579 -38 -37 -73 -68 -78 -68 -4 0 -25 -10 -46 -22 -20 -12 -42 -23 -48
-25 -5 -1 -30 -10 -55 -19 -54 -20 -206 -27 -270 -13 -59 13 -180 60 -180 70
0 4 -9 11 -20 14 -11 4 -50 36 -85 71 -170 170 -211 421 -105 639 111 231 366
355 620 302z"/>
</g>
</svg>
