<svg xmlns="http://www.w3.org/2000/svg" version="1.1"  xmlns:xlink="http://www.w3.org/1999/xlink" xmlns:svgjs="http://svgjs.dev/svgjs" viewBox="0 0 1200 1200" width="1200" height="1200"><defs><filter id="nnnoise-filter" x="-20%" y="-20%" width="140%" height="140%" filterUnits="objectBoundingBox" primitiveUnits="userSpaceOnUse" color-interpolation-filters="linearRGB"><feTurbulence type="fractalNoise" baseFrequency="0.103" numOctaves="4" seed="15" stitchTiles="stitch" x="0%" y="0%" width="100%" height="100%" result="turbulence"></feTurbulence><feSpecularLighting surfaceScale="13" specularConstant="0.9" specularExponent="20" lighting-color="hsl(23, 0%, 100%)" x="0%" y="0%" width="100%" height="100%" in="turbulence" result="specularLighting"><feDistantLight azimuth="3" elevation="91"></feDistantLight></feSpecularLighting></filter></defs><rect x="0" y="0" style="fill:#343E47" width="1200" height="1200" /><rect x="0" y="0" filter="url(#nnnoise-filter)" style="fill:#343E47" width="1200" height="1200" /><circle cx="600" cy="392" r="66" fill="#F8F8FF" stroke="#f3f3f3" stroke-width="1" /><circle cx="618" cy="58" r="3" fill-opacity="1" fill="#ffffff" /><circle cx="1112" cy="1025" r="2000" stroke-width="1" stroke-dasharray="0px 0px" fill="none" stroke="#ffffff" stroke-opacity="100%" opacity="88%"></circle><circle cx="1112" cy="1025" r="1975" stroke-width="1" stroke-dasharray="0px 0px" fill="none" stroke="#ffffff" stroke-opacity="100%" opacity="88%"></circle><circle cx="1112" cy="1025" r="1950" stroke-width="1" stroke-dasharray="0px 0px" fill="none" stroke="#ffffff" stroke-opacity="100%" opacity="88%"></circle><circle cx="1112" cy="1025" r="1925" stroke-width="1" stroke-dasharray="0px 0px" fill="none" stroke="#ffffff" stroke-opacity="100%" opacity="88%"></circle><circle cx="1112" cy="1025" r="1900" stroke-width="1" stroke-dasharray="0px 0px" fill="none" stroke="#ffffff" stroke-opacity="100%" opacity="88%"></circle><circle cx="1112" cy="1025" r="1875" stroke-width="1" stroke-dasharray="0px 0px" fill="none" stroke="#ffffff" stroke-opacity="100%" opacity="88%"></circle><circle cx="1112" cy="1025" r="1850" stroke-width="1" stroke-dasharray="0px 0px" fill="none" stroke="#ffffff" stroke-opacity="100%" opacity="88%"></circle><circle cx="1112" cy="1025" r="1825" stroke-width="1" stroke-dasharray="0px 0px" fill="none" stroke="#ffffff" stroke-opacity="100%" opacity="88%"></circle><circle cx="1112" cy="1025" r="1800" stroke-width="1" stroke-dasharray="0px 0px" fill="none" stroke="#ffffff" stroke-opacity="100%" opacity="88%"></circle><circle cx="1112" cy="1025" r="1775" stroke-width="1" stroke-dasharray="0px 0px" fill="none" stroke="#ffffff" stroke-opacity="100%" opacity="88%"></circle><circle cx="1112" cy="1025" r="1750" stroke-width="1" stroke-dasharray="0px 0px" fill="none" stroke="#ffffff" stroke-opacity="100%" opacity="88%"><animate attributeType="SVG" attributeName="r" begin="0s" dur="2.5s" repeatCount="indefinite" from="5%" to="90%"/><animate attributeType="CSS" attributeName="stroke-width" begin="0s"  dur="1.5s" repeatCount="indefinite" from=".5%" to="0%" /><animate attributeType="CSS" attributeName="opacity" begin="0s"  dur="1.5s" repeatCount="indefinite" from="1" to="0"/></circle><circle cx="1112" cy="1025" r="1725" stroke-width="1" stroke-dasharray="0px 0px" fill="none" stroke="#ffffff" stroke-opacity="100%" opacity="88%"></circle><circle cx="1112" cy="1025" r="1700" stroke-width="1" stroke-dasharray="0px 0px" fill="none" stroke="#ffffff" stroke-opacity="100%" opacity="88%"></circle><circle cx="1112" cy="1025" r="1675" stroke-width="1" stroke-dasharray="0px 0px" fill="none" stroke="#ffffff" stroke-opacity="100%" opacity="88%"></circle><circle cx="1112" cy="1025" r="1650" stroke-width="1" stroke-dasharray="0px 0px" fill="none" stroke="#ffffff" stroke-opacity="100%" opacity="88%"></circle><circle cx="1112" cy="1025" r="1625" stroke-width="1" stroke-dasharray="0px 0px" fill="none" stroke="#ffffff" stroke-opacity="100%" opacity="88%"></circle><circle cx="1112" cy="1025" r="1600" stroke-width="1" stroke-dasharray="0px 0px" fill="none" stroke="#ffffff" stroke-opacity="100%" opacity="88%"></circle><circle cx="1112" cy="1025" r="1575" stroke-width="1" stroke-dasharray="0px 0px" fill="none" stroke="#ffffff" stroke-opacity="100%" opacity="88%"></circle><circle cx="1112" cy="1025" r="1550" stroke-width="1" stroke-dasharray="0px 0px" fill="none" stroke="#ffffff" stroke-opacity="100%" opacity="88%"></circle><circle cx="1112" cy="1025" r="1525" stroke-width="1" stroke-dasharray="0px 0px" fill="none" stroke="#ffffff" stroke-opacity="100%" opacity="88%"></circle><circle cx="1112" cy="1025" r="1500" stroke-width="1" stroke-dasharray="0px 0px" fill="none" stroke="#ffffff" stroke-opacity="100%" opacity="88%"></circle><circle cx="1112" cy="1025" r="1475" stroke-width="1" stroke-dasharray="0px 0px" fill="none" stroke="#ffffff" stroke-opacity="100%" opacity="88%"></circle><circle cx="1112" cy="1025" r="1450" stroke-width="1" stroke-dasharray="0px 0px" fill="none" stroke="#ffffff" stroke-opacity="100%" opacity="88%"></circle><circle cx="1112" cy="1025" r="1425" stroke-width="1" stroke-dasharray="0px 0px" fill="none" stroke="#ffffff" stroke-opacity="100%" opacity="88%"></circle><circle cx="1112" cy="1025" r="1400" stroke-width="1" stroke-dasharray="0px 0px" fill="none" stroke="#ffffff" stroke-opacity="100%" opacity="88%"></circle><circle cx="1112" cy="1025" r="1375" stroke-width="1" stroke-dasharray="0px 0px" fill="none" stroke="#ffffff" stroke-opacity="100%" opacity="88%"></circle><circle cx="1112" cy="1025" r="1350" stroke-width="1" stroke-dasharray="0px 0px" fill="none" stroke="#ffffff" stroke-opacity="100%" opacity="88%"></circle><circle cx="1112" cy="1025" r="1325" stroke-width="1" stroke-dasharray="0px 0px" fill="none" stroke="#ffffff" stroke-opacity="100%" opacity="88%"></circle><circle cx="1112" cy="1025" r="1300" stroke-width="1" stroke-dasharray="0px 0px" fill="none" stroke="#ffffff" stroke-opacity="100%" opacity="88%"></circle><circle cx="1112" cy="1025" r="1275" stroke-width="1" stroke-dasharray="0px 0px" fill="none" stroke="#ffffff" stroke-opacity="100%" opacity="88%"></circle><circle cx="1112" cy="1025" r="1250" stroke-width="1" stroke-dasharray="0px 0px" fill="none" stroke="#ffffff" stroke-opacity="100%" opacity="88%"></circle><circle cx="1112" cy="1025" r="1225" stroke-width="1" stroke-dasharray="0px 0px" fill="none" stroke="#ffffff" stroke-opacity="100%" opacity="88%"></circle><circle cx="1112" cy="1025" r="1200" stroke-width="1" stroke-dasharray="0px 0px" fill="none" stroke="#ffffff" stroke-opacity="100%" opacity="88%"></circle><circle cx="1112" cy="1025" r="1175" stroke-width="1" stroke-dasharray="0px 0px" fill="none" stroke="#ffffff" stroke-opacity="100%" opacity="88%"></circle><circle cx="1112" cy="1025" r="1150" stroke-width="1" stroke-dasharray="0px 0px" fill="none" stroke="#ffffff" stroke-opacity="100%" opacity="88%"></circle><circle cx="1112" cy="1025" r="1125" stroke-width="1" stroke-dasharray="0px 0px" fill="none" stroke="#ffffff" stroke-opacity="100%" opacity="88%"></circle><circle cx="1112" cy="1025" r="1100" stroke-width="1" stroke-dasharray="0px 0px" fill="none" stroke="#ffffff" stroke-opacity="100%" opacity="88%"></circle><circle cx="1112" cy="1025" r="1075" stroke-width="1" stroke-dasharray="0px 0px" fill="none" stroke="#ffffff" stroke-opacity="100%" opacity="88%"></circle><circle cx="1112" cy="1025" r="1050" stroke-width="1" stroke-dasharray="0px 0px" fill="none" stroke="#ffffff" stroke-opacity="100%" opacity="88%"></circle><circle cx="1112" cy="1025" r="1025" stroke-width="1" stroke-dasharray="0px 0px" fill="none" stroke="#ffffff" stroke-opacity="100%" opacity="88%"></circle><circle cx="1112" cy="1025" r="1000" stroke-width="1" stroke-dasharray="0px 0px" fill="none" stroke="#ffffff" stroke-opacity="100%" opacity="88%"></circle><circle cx="1112" cy="1025" r="975" stroke-width="1" stroke-dasharray="0px 0px" fill="none" stroke="#ffffff" stroke-opacity="100%" opacity="88%"></circle><circle cx="1112" cy="1025" r="950" stroke-width="1" stroke-dasharray="0px 0px" fill="none" stroke="#ffffff" stroke-opacity="100%" opacity="88%"></circle><circle cx="1112" cy="1025" r="925" stroke-width="1" stroke-dasharray="0px 0px" fill="none" stroke="#ffffff" stroke-opacity="100%" opacity="88%"></circle><circle cx="1112" cy="1025" r="900" stroke-width="1" stroke-dasharray="0px 0px" fill="none" stroke="#ffffff" stroke-opacity="100%" opacity="88%"></circle><circle cx="1112" cy="1025" r="875" stroke-width="1" stroke-dasharray="0px 0px" fill="none" stroke="#ffffff" stroke-opacity="100%" opacity="88%"></circle><circle cx="1112" cy="1025" r="850" stroke-width="1" stroke-dasharray="0px 0px" fill="none" stroke="#ffffff" stroke-opacity="100%" opacity="88%"></circle><circle cx="1112" cy="1025" r="825" stroke-width="1" stroke-dasharray="0px 0px" fill="none" stroke="#ffffff" stroke-opacity="100%" opacity="88%"></circle><circle cx="1112" cy="1025" r="800" stroke-width="1" stroke-dasharray="0px 0px" fill="none" stroke="#ffffff" stroke-opacity="100%" opacity="88%"></circle><circle cx="1112" cy="1025" r="775" stroke-width="1" stroke-dasharray="0px 0px" fill="none" stroke="#ffffff" stroke-opacity="100%" opacity="88%"></circle><circle cx="1112" cy="1025" r="750" stroke-width="1" stroke-dasharray="0px 0px" fill="none" stroke="#ffffff" stroke-opacity="100%" opacity="88%"></circle><circle cx="1112" cy="1025" r="725" stroke-width="1" stroke-dasharray="0px 0px" fill="none" stroke="#ffffff" stroke-opacity="100%" opacity="88%"></circle><circle cx="1112" cy="1025" r="700" stroke-width="1" stroke-dasharray="0px 0px" fill="none" stroke="#ffffff" stroke-opacity="100%" opacity="88%"></circle><circle cx="1112" cy="1025" r="675" stroke-width="1" stroke-dasharray="0px 0px" fill="none" stroke="#ffffff" stroke-opacity="100%" opacity="88%"></circle><circle cx="1112" cy="1025" r="650" stroke-width="1" stroke-dasharray="0px 0px" fill="none" stroke="#ffffff" stroke-opacity="100%" opacity="88%"></circle><circle cx="1112" cy="1025" r="625" stroke-width="1" stroke-dasharray="0px 0px" fill="none" stroke="#ffffff" stroke-opacity="100%" opacity="88%"></circle><circle cx="1112" cy="1025" r="600" stroke-width="1" stroke-dasharray="0px 0px" fill="none" stroke="#ffffff" stroke-opacity="100%" opacity="88%"></circle><circle cx="1112" cy="1025" r="575" stroke-width="1" stroke-dasharray="0px 0px" fill="none" stroke="#ffffff" stroke-opacity="100%" opacity="88%"></circle><circle cx="1112" cy="1025" r="550" stroke-width="1" stroke-dasharray="0px 0px" fill="none" stroke="#ffffff" stroke-opacity="100%" opacity="88%"></circle><circle cx="1112" cy="1025" r="525" stroke-width="1" stroke-dasharray="0px 0px" fill="none" stroke="#ffffff" stroke-opacity="100%" opacity="88%"></circle><circle cx="1112" cy="1025" r="500" stroke-width="1" stroke-dasharray="0px 0px" fill="none" stroke="#ffffff" stroke-opacity="100%" opacity="88%"></circle><circle cx="1112" cy="1025" r="475" stroke-width="1" stroke-dasharray="0px 0px" fill="none" stroke="#ffffff" stroke-opacity="100%" opacity="88%"></circle><circle cx="1112" cy="1025" r="450" stroke-width="1" stroke-dasharray="0px 0px" fill="none" stroke="#ffffff" stroke-opacity="100%" opacity="88%"></circle><circle cx="1112" cy="1025" r="425" stroke-width="1" stroke-dasharray="0px 0px" fill="none" stroke="#ffffff" stroke-opacity="100%" opacity="88%"></circle><circle cx="1112" cy="1025" r="400" stroke-width="1" stroke-dasharray="0px 0px" fill="none" stroke="#ffffff" stroke-opacity="100%" opacity="88%"></circle><circle cx="1112" cy="1025" r="375" stroke-width="1" stroke-dasharray="0px 0px" fill="none" stroke="#ffffff" stroke-opacity="100%" opacity="88%"></circle><circle cx="1112" cy="1025" r="350" stroke-width="1" stroke-dasharray="0px 0px" fill="none" stroke="#ffffff" stroke-opacity="100%" opacity="88%"></circle><circle cx="1112" cy="1025" r="325" stroke-width="1" stroke-dasharray="0px 0px" fill="none" stroke="#ffffff" stroke-opacity="100%" opacity="88%"></circle><circle cx="1112" cy="1025" r="300" stroke-width="1" stroke-dasharray="0px 0px" fill="none" stroke="#ffffff" stroke-opacity="100%" opacity="88%"></circle><circle cx="1112" cy="1025" r="275" stroke-width="1" stroke-dasharray="0px 0px" fill="none" stroke="#ffffff" stroke-opacity="100%" opacity="88%"></circle><circle cx="1112" cy="1025" r="250" stroke-width="1" stroke-dasharray="0px 0px" fill="none" stroke="#ffffff" stroke-opacity="100%" opacity="88%"></circle><circle cx="1112" cy="1025" r="225" stroke-width="1" stroke-dasharray="0px 0px" fill="none" stroke="#ffffff" stroke-opacity="100%" opacity="88%"></circle><circle cx="1112" cy="1025" r="200" stroke-width="1" stroke-dasharray="0px 0px" fill="none" stroke="#ffffff" stroke-opacity="100%" opacity="88%"></circle><circle cx="1112" cy="1025" r="175" stroke-width="1" stroke-dasharray="0px 0px" fill="none" stroke="#ffffff" stroke-opacity="100%" opacity="88%"></circle><circle cx="1112" cy="1025" r="150" stroke-width="1" stroke-dasharray="0px 0px" fill="none" stroke="#ffffff" stroke-opacity="100%" opacity="88%"></circle><circle cx="1112" cy="1025" r="125" stroke-width="1" stroke-dasharray="0px 0px" fill="none" stroke="#ffffff" stroke-opacity="100%" opacity="88%"></circle><circle cx="1112" cy="1025" r="100" stroke-width="1" stroke-dasharray="0px 0px" fill="none" stroke="#ffffff" stroke-opacity="100%" opacity="88%"></circle><circle cx="1112" cy="1025" r="75" stroke-width="1" stroke-dasharray="0px 0px" fill="none" stroke="#ffffff" stroke-opacity="100%" opacity="88%"></circle><circle cx="1112" cy="1025" r="50" stroke-width="1" stroke-dasharray="0px 0px" fill="none" stroke="#ffffff" stroke-opacity="100%" opacity="88%"></circle><circle cx="1112" cy="1025" r="25" stroke-width="1" stroke-dasharray="0px 0px" fill="none" stroke="#ffffff" stroke-opacity="100%" opacity="88%"></circle><style>.voyager { font: 20px monospace; fill: #ffffff; }</style><text x="1106.5" y="1030.5" class="voyager" >+</text><path stroke="#C6B8B8" stroke-width="2" fill="#FC6A21" d="M 0 602.0 c 79 1 139 2 231 1 61 -1 145 -10 231 3 76 17 132 -19 256 -3 74 4 121 -9 248 3 75 -12 133 16 220 -16 63 -1 149 -1 251 -7 63 12 144 -16 230 -16 62 19 133 -8 244 -17 66 13 133 11 258 -13 71 -5 140 -11 248 -17 65 13 127 11 239 -2 62 -16 142 -14 249 -4 70 -5 126 -15 229 -7 75 -17 135 6 234 -11 72 -2 123 -2 238 -12 60 -14 127 -5 249 -13 l -40 1200 H 0 Z" /><path stroke="#C6B8B8" stroke-width="2" fill="#FC6A21" d="M 0 602.0 c 79 1 139 2 231 1 61 -1 145 -10 231 3 76 17 132 -19 256 -3 74 4 121 -9 248 3 75 -12 133 16 220 -16 63 -1 149 -1 251 -7 63 12 144 -16 230 -16 62 19 133 -8 244 -17 66 13 133 11 258 -13 71 -5 140 -11 248 -17 65 13 127 11 239 -2 62 -16 142 -14 249 -4 70 -5 126 -15 229 -7 75 -17 135 6 234 -11 72 -2 123 -2 238 -12 60 -14 127 -5 249 -13 l -40 1200 H 0 Z" /><path stroke="#C6B8B8" stroke-width="1" fill="#FFE159" d="M 0 638.0 c 62 5 127 12 257 -10 62 -17 149 -2 256 -1 78 3 125 -16 251 -17 64 -9 138 2 257 -13 63 15 138 7 252 -16 62 1 146 -12 245 3 79 -17 134 2 248 -10 72 -19 144 11 240 -2 71 -10 143 1 235 -1 72 -14 138 -4 254 1 78 -10 128 17 241 4 64 -2 137 -6 227 -5 73 13 130 1 230 -13 67 19 145 12 256 -1 65 6 147 14 247 -2 76 -4 147 5 230 -8 l -40 1200 H 0 Z" /><path stroke="#C6B8B8" stroke-width="2" fill="#FC6A21" d="M 0 602.0 c 79 1 139 2 231 1 61 -1 145 -10 231 3 76 17 132 -19 256 -3 74 4 121 -9 248 3 75 -12 133 16 220 -16 63 -1 149 -1 251 -7 63 12 144 -16 230 -16 62 19 133 -8 244 -17 66 13 133 11 258 -13 71 -5 140 -11 248 -17 65 13 127 11 239 -2 62 -16 142 -14 249 -4 70 -5 126 -15 229 -7 75 -17 135 6 234 -11 72 -2 123 -2 238 -12 60 -14 127 -5 249 -13 l -40 1200 H 0 Z" /><path stroke="#C6B8B8" stroke-width="1" fill="#FFE159" d="M 0 638.0 c 62 5 127 12 257 -10 62 -17 149 -2 256 -1 78 3 125 -16 251 -17 64 -9 138 2 257 -13 63 15 138 7 252 -16 62 1 146 -12 245 3 79 -17 134 2 248 -10 72 -19 144 11 240 -2 71 -10 143 1 235 -1 72 -14 138 -4 254 1 78 -10 128 17 241 4 64 -2 137 -6 227 -5 73 13 130 1 230 -13 67 19 145 12 256 -1 65 6 147 14 247 -2 76 -4 147 5 230 -8 l -40 1200 H 0 Z" /><path stroke="#C6B8B8" stroke-width="0" fill="#FF7E01" d="M 0 664.0 c 76 -7 149 -13 233 -17 69 8 144 -7 222 1 61 -12 145 17 229 -16 62 -8 124 3 254 -18 73 10 128 -2 238 -2 72 -16 134 3 229 -4 69 -13 138 18 251 -10 75 -11 145 4 223 -2 66 -8 130 -10 241 3 66 19 120 18 224 -15 72 -18 141 -3 258 0 67 7 134 -14 251 7 72 -20 143 -10 226 5 71 -15 140 -13 241 -17 78 -15 121 -14 237 -10 67 -10 136 -11 237 -20 l -40 1200 H 0 Z" /><path stroke="#C6B8B8" stroke-width="2" fill="#FC6A21" d="M 0 602.0 c 79 1 139 2 231 1 61 -1 145 -10 231 3 76 17 132 -19 256 -3 74 4 121 -9 248 3 75 -12 133 16 220 -16 63 -1 149 -1 251 -7 63 12 144 -16 230 -16 62 19 133 -8 244 -17 66 13 133 11 258 -13 71 -5 140 -11 248 -17 65 13 127 11 239 -2 62 -16 142 -14 249 -4 70 -5 126 -15 229 -7 75 -17 135 6 234 -11 72 -2 123 -2 238 -12 60 -14 127 -5 249 -13 l -40 1200 H 0 Z" /><path stroke="#C6B8B8" stroke-width="1" fill="#FFE159" d="M 0 638.0 c 62 5 127 12 257 -10 62 -17 149 -2 256 -1 78 3 125 -16 251 -17 64 -9 138 2 257 -13 63 15 138 7 252 -16 62 1 146 -12 245 3 79 -17 134 2 248 -10 72 -19 144 11 240 -2 71 -10 143 1 235 -1 72 -14 138 -4 254 1 78 -10 128 17 241 4 64 -2 137 -6 227 -5 73 13 130 1 230 -13 67 19 145 12 256 -1 65 6 147 14 247 -2 76 -4 147 5 230 -8 l -40 1200 H 0 Z" /><path stroke="#C6B8B8" stroke-width="0" fill="#FF7E01" d="M 0 664.0 c 76 -7 149 -13 233 -17 69 8 144 -7 222 1 61 -12 145 17 229 -16 62 -8 124 3 254 -18 73 10 128 -2 238 -2 72 -16 134 3 229 -4 69 -13 138 18 251 -10 75 -11 145 4 223 -2 66 -8 130 -10 241 3 66 19 120 18 224 -15 72 -18 141 -3 258 0 67 7 134 -14 251 7 72 -20 143 -10 226 5 71 -15 140 -13 241 -17 78 -15 121 -14 237 -10 67 -10 136 -11 237 -20 l -40 1200 H 0 Z" /><path stroke="#C6B8B8" stroke-width="0" fill="#FFE159" d="M 0 777.0 c 75 12 134 15 237 6 61 8 146 -18 244 -16 66 -8 139 -19 223 9 60 -20 128 6 231 -19 65 12 143 15 224 -15 74 -13 123 7 238 -3 75 6 131 5 246 -9 73 10 133 -3 234 -5 65 11 129 19 244 -5 72 -13 149 19 248 9 67 -19 135 19 252 -20 62 -18 146 -20 225 -18 61 3 127 0 255 -1 70 -18 145 -12 244 9 73 11 142 -12 228 -5 75 14 141 4 258 -5 l -40 1200 H 0 Z" /><path stroke="#C6B8B8" stroke-width="2" fill="#FC6A21" d="M 0 602.0 c 79 1 139 2 231 1 61 -1 145 -10 231 3 76 17 132 -19 256 -3 74 4 121 -9 248 3 75 -12 133 16 220 -16 63 -1 149 -1 251 -7 63 12 144 -16 230 -16 62 19 133 -8 244 -17 66 13 133 11 258 -13 71 -5 140 -11 248 -17 65 13 127 11 239 -2 62 -16 142 -14 249 -4 70 -5 126 -15 229 -7 75 -17 135 6 234 -11 72 -2 123 -2 238 -12 60 -14 127 -5 249 -13 l -40 1200 H 0 Z" /><path stroke="#C6B8B8" stroke-width="1" fill="#FFE159" d="M 0 638.0 c 62 5 127 12 257 -10 62 -17 149 -2 256 -1 78 3 125 -16 251 -17 64 -9 138 2 257 -13 63 15 138 7 252 -16 62 1 146 -12 245 3 79 -17 134 2 248 -10 72 -19 144 11 240 -2 71 -10 143 1 235 -1 72 -14 138 -4 254 1 78 -10 128 17 241 4 64 -2 137 -6 227 -5 73 13 130 1 230 -13 67 19 145 12 256 -1 65 6 147 14 247 -2 76 -4 147 5 230 -8 l -40 1200 H 0 Z" /><path stroke="#C6B8B8" stroke-width="0" fill="#FF7E01" d="M 0 664.0 c 76 -7 149 -13 233 -17 69 8 144 -7 222 1 61 -12 145 17 229 -16 62 -8 124 3 254 -18 73 10 128 -2 238 -2 72 -16 134 3 229 -4 69 -13 138 18 251 -10 75 -11 145 4 223 -2 66 -8 130 -10 241 3 66 19 120 18 224 -15 72 -18 141 -3 258 0 67 7 134 -14 251 7 72 -20 143 -10 226 5 71 -15 140 -13 241 -17 78 -15 121 -14 237 -10 67 -10 136 -11 237 -20 l -40 1200 H 0 Z" /><path stroke="#C6B8B8" stroke-width="0" fill="#FFE159" d="M 0 777.0 c 75 12 134 15 237 6 61 8 146 -18 244 -16 66 -8 139 -19 223 9 60 -20 128 6 231 -19 65 12 143 15 224 -15 74 -13 123 7 238 -3 75 6 131 5 246 -9 73 10 133 -3 234 -5 65 11 129 19 244 -5 72 -13 149 19 248 9 67 -19 135 19 252 -20 62 -18 146 -20 225 -18 61 3 127 0 255 -1 70 -18 145 -12 244 9 73 11 142 -12 228 -5 75 14 141 4 258 -5 l -40 1200 H 0 Z" /><path stroke="#C6B8B8" stroke-width="0" fill="#FF7E01" d="M 0 951.0 c 74 -8 128 -1 243 4 61 -6 140 -19 242 -14 62 -4 132 -4 229 -13 72 -15 137 3 257 -19 62 -19 149 -11 245 -19 74 9 138 -12 258 1 71 -12 131 16 249 -1 73 -7 141 19 257 -3 65 -9 123 -4 251 6 79 -13 149 0 229 -13 75 3 127 -2 227 7 69 8 144 -12 258 3 60 -1 128 -8 230 -2 77 -20 123 18 222 -8 60 -18 133 -19 259 -9 65 -14 141 16 250 -3 l -40 1200 H 0 Z" /><rect x="0" y="0" width="1200" height="1200" style="stroke:#fcfceb; fill: none;stroke-width:80px"/><g id="triptych"><line x1="300.0" y1="0" x2="300.0" y2="1200" style="stroke:#fcfceb;stroke-width:10px;" /><line x1="900.0" y1="0" x2="900.0" y2="1200" style="stroke:#fcfceb;stroke-width:10px;" /></g><rect x="0" y="0" width="1200" height="1200" style="stroke: #000000; fill: none;stroke-width:1px"/><style>.label { font: 20px monospace; fill: #999999; }</style><g id="label"><text x="40" y="1187" class="label" >VOYAGER 1: 1977-9-11 LOCATION: 0.1000 349.90 7.3166 258.88 274.48</text></g><style>.top_label { font: 16px monospace; fill: #999999; }</style><g id="top_label"><text x="40" y="27" class="top_label" >SOLAR WIND: 0.0790 0.0790 -1.0000 0.1290 1.0114 3.310 2.940 -27.8 193.6 TRIAXIAL FLUXGATE MAGNETOMETER</text></g></svg>